<?xml version="1.0" encoding="UTF-8"?>
<svg id="Capa_1" data-name="Capa 1" xmlns="http://www.w3.org/2000/svg" viewBox="0 0 1222.9 480.24">
  <defs>
    <style>
      .cls-1 {
        fill: #b32801;
      }

      .cls-2 {
        fill: #1c1b00;
      }

      .cls-3 {
        fill: #e5b001;
      }
    </style>
  </defs>
  <path class="cls-2" d="M155.3,201.5l37.5,78.01,37-78.01h654.5c.15,33.17-.18,66.36-.04,99.54.14,32.64,6.27,112.87-22.05,134.87-6.84,5.32-15.01,7.09-23.37,8.63l-433.96.02-16.08-62.04-11.5,61.98h-154v-34l-25.5,45.98-31.49-38.98c-1.04,7.8-8.8,13.24-14.68,17.83-35.97,28.08-83.04,39.24-128.33,36.16,17.23-19.49,35.98-37.69,54.05-56.44,2.18-56.65.36-114.09.92-171.03-9.97-15.42-23.98-27.82-34.98-42.52h112ZM417.3,356.5c3.03,2.85,9.65,51.31,12,59h48c-10.9-46.81-17.31-94.53-20.99-142.51-1.91-16,.05-35.38-2.1-50.93-1.07-7.74-10.27-3.61-15.36-3.52-40.81.76-81.73-.66-122.54-.03l23.45,30.04c1.24,14.04-.88,28.37-2.58,42.33-5.12,42.05-15.2,83.28-23.87,124.63h46c3.34-19.44,3.22-39.43,6.21-58.84.67-.6,2.1.02,2.79-.16,2.19-.24,5.58.9,7-1,.66-.04,1.34.03,2,0,.66,1.58,4.34,1.58,5,0,1.33-.03,2.67.02,4,0,.95,1.61,4.99,1.64,6,0,.67,0,1.33,0,2,0,1.26,1.65,5.74,1.65,7,0,1.33.02,2.67-.03,4,0,3.04,2.2,8.21.5,12,1ZM614.3,217.5l-135,1.01,20.05,36.44c-.57,49.69.59,99.42,0,149.11-.04,3.66,0,8.14-1.04,11.44h40l-.65-64.57c2.57-2.33,8.07-3.31,11.21-1.48,1.28.75,20.11,19.8,20.87,21.12l12.57,44.93h47c-8.82-9.25-11.58-19.64-14.92-31.58s-5.6-34.54-13.06-42.94c-2.16-2.43-17-14.62-17-15.98l29.98-30v-77.5ZM135.8,218.5h-47.5c4.98,6.66,11.55,13.48,14.03,21.47l-.54,180.5c-9.17,10.22-18.67,20.31-29.48,29.01,25.5-7.55,49.57-20.24,68.83-38.65-1.93-31.37.13-62.92-1.34-94.32l44,82.99c1.59,1.43,16.06,1.39,19.07,1.04,1.44-.17,2.63-.1,3.34-1.66l32.92-68.08,10.18-17.32v102h40v-181.5c0-1.32,8.86-13.06,10-15.5h-49l-56.51,116.01-57.99-116.01ZM705.3,218.5h-66c1.21,3.37,13,19.78,13,21.5v175.5h57c-4.63-9.53-11.95-17.81-16.04-27.46l.02-148.07c2.3-8.03,7.31-14.85,12.02-21.48ZM855.3,218.5h-118.5c-8.53,19.29-14.48,40.26-15.54,61.46-1.84,36.8,1.47,75.55,9.72,111.36.99,4.28,4.48,19.96,6.41,22.59.96,1.32,1.68,1.74,3.36,1.64h96.09s1.77-1.27,1.77-1.27c12.57-45.39,14.19-93.37,9.57-140.16-.83-8.43-3.42-17.94-3.86-26.13-.61-11.42,6.28-19.66,10.98-29.49Z"/>
  <path class="cls-3" d="M135.8,218.5l57.99,116.01,56.51-116.01h49c-1.14,2.44-10,14.18-10,15.5v181.5h-40v-102l-10.18,17.32-32.92,68.08c-.71,1.56-1.9,1.49-3.34,1.66-3.01.35-17.48.39-19.07-1.04l-44-82.99c1.48,31.4-.58,62.95,1.34,94.32-19.27,18.41-43.33,31.1-68.83,38.65,10.82-8.7,20.31-18.79,29.48-29.01l.54-180.5c-2.48-8-9.05-14.81-14.03-21.47h47.5Z"/>
  <path class="cls-3" d="M368.3,356.5c-.69.19-2.13-.44-2.79.16-2.99,19.41-2.87,39.4-6.21,58.84h-46c8.67-41.34,18.75-82.58,23.87-124.63,1.7-13.96,3.82-28.29,2.58-42.33l-23.45-30.04c40.81-.63,81.73.79,122.54.03,5.09-.1,14.29-4.22,15.36,3.52,2.15,15.55.2,34.93,2.1,50.93,3.68,47.98,10.09,95.7,20.99,142.51h-48c-2.35-7.69-8.97-56.15-12-59-1.99-1.87-8.73-.94-12-1-1.33-.03-2.67.02-4,0-2.33-.04-4.67.02-7,0-.67,0-1.33,0-2,0-2,0-4-.03-6,0-1.33.02-2.67-.03-4,0-1.66.04-3.34-.07-5,0-.66.03-1.34-.04-2,0-3.22.19-3.91.17-7,1ZM412.3,253.5h-34l-8,63h42v-63Z"/>
  <path class="cls-3" d="M614.3,217.5v77.5l-29.98,30c0,1.36,14.85,13.55,17,15.98,7.46,8.41,9.73,31.08,13.06,42.94s6.1,22.33,14.92,31.58h-47l-12.57-44.93c-.76-1.32-19.59-20.38-20.87-21.12-3.14-1.83-8.64-.85-11.21,1.48l.65,64.57h-40c1.03-3.29.99-7.77,1.04-11.44.59-49.69-.56-99.42,0-149.11l-20.05-36.44,135-1.01ZM575.3,253.5h-37c.55,1.28-1,2.96-1,3.5v55.5c5.78-2.63,11.53-7.06,16.47-11.03,2.68-2.15,21.53-18.02,21.53-19.47v-28.5Z"/>
  <path class="cls-3" d="M855.3,218.5c-4.7,9.83-11.59,18.07-10.98,29.49.44,8.2,3.03,17.7,3.86,26.13,4.62,46.79,3,94.77-9.57,140.16l-1.77,1.28h-96.09c-1.68.08-2.39-.34-3.36-1.65-1.93-2.64-5.42-18.32-6.41-22.59-8.26-35.8-11.57-74.56-9.72-111.36,1.06-21.2,7.01-42.17,15.54-61.46h118.5ZM810.3,380.5c-.39-8.72,1.68-17.86,2.04-26.46.89-21.23,1.15-47.95,0-69.08-.55-10.16-2.79-20.4-4.05-30.47-.39-.4-1.29,1.01-1.49,1.01h-44.5c-.92,21.81-4.12,43.53-2.99,65.49,1.01,19.62,5.98,38.54,9.17,57.83l1.32,1.68h40.5Z"/>
  <path class="cls-3" d="M705.3,218.5c-4.72,6.62-9.72,13.45-12.02,21.48l-.02,148.07c4.09,9.64,11.41,17.92,16.04,27.46h-57v-175.5c0-1.72-11.79-18.13-13-21.5h66Z"/>
  <path class="cls-1" d="M417.3,356.5c-3.79-.5-8.96,1.2-12-1,3.27.06,10.01-.87,12,1Z"/>
  <path class="cls-1" d="M375.3,355.5c-1.42,1.9-4.81.76-7,1,3.09-.83,3.78-.81,7-1Z"/>
  <path class="cls-1" d="M401.3,355.5c-1.26,1.65-5.74,1.65-7,0,2.33.02,4.67-.04,7,0Z"/>
  <path class="cls-1" d="M392.3,355.5c-1.01,1.64-5.05,1.61-6,0,2-.03,4,0,6,0Z"/>
  <path class="cls-1" d="M382.3,355.5c-.66,1.58-4.34,1.58-5,0,1.66-.07,3.34.04,5,0Z"/>
  <path class="cls-3" d="M329.3,45.5v120h-21.5c-.11,0-1.5-1.39-1.5-1.5v-65.5l-26.66,57.05-17.18-.21c-6.12-15.01-13.47-29.48-20.35-44.14-1.66-3.53-1.48-8.69-5.8-10.69l-1.01,65h-24V45.5h26.5l33.49,76,30.2-74.32,1.46-1.55c.75-.3,1.59-.05,2.35-.13,5.17-.55,12.62-.17,18,0,.67.02,1.33-.02,2,0,1.33.03,2.67-.02,4,0Z"/>
  <path class="cls-3" d="M743.3,45.5c-1.98,6.73-7.31,17.65-8.03,23.47-3.06,24.77,1.42,57.09.07,83.07-.23,4.35-1.83,8.82-1.04,13.46h-23.5c-12.04-18.55-22.6-38.21-32.51-57.99-2.63.13.01,3.92.01,4.49v53.5h-24V56c0-.93-11.56-9.92-9.99-11.5,9.52,1.25,20.45,1.62,29.94.01,11.3,23.24,20.33,49.88,33.53,72.01.65,1.09,1.01,2.75,2.51,2.98l.85-50.34c-.9-2.58-7.79-3.44-9.29-5.71-.67-1.01-.53-2.73-1.17-3.83-1.2-2.09-8.43-13.3-8.38-14.12,1.98-.12,4.03.17,6,0,.66-.06,1.34.02,2,0h4c.67,0,1.33,0,2,0h2c.67,0,1.33,0,2,0h2c1.33,0,2.67-.01,4,0,8.99.1,18.01-.07,27,0Z"/>
  <path class="cls-3" d="M758.3,45.5h22c16.3,0,32.71-.3,49,0,2,.04,4.01-.08,6,0,.67.03,1.34-.02,2,0,.78.96-9.48,19.16-9.78,22.73-.17,1.94.85,3.77.83,5.73-.23,23.85,1.29,49.45-2.12,72.96-.84,5.76-3.19,12.56-4.02,18.48h-66.8c-4.07-25.39-6.25-52.64-5.15-78.45.39-9.2,2.3-34.47,7.05-41.45h1ZM807.3,67.51l-35-1.01c-.24,25.43-.62,50.85,4.11,75.9l25.9,1.11c4.1-25.18,3.52-50.7,5-76Z"/>
  <path class="cls-3" d="M630.3,45.5l13,118.99c-8.64,1.01-17.28,1.22-26,1.01l-2-32.01h-24c-1.5,8.59.45,21.6-1,29.5-.15.83-.8,2.5-1.5,2.5h-24.5l11-120h55ZM610.3,67.5h-15l-3,44h22l-4-44Z"/>
  <path class="cls-3" d="M148.3,45.5c-.42,31.92.28,63.64,2.94,95.38.11.42,3.29,1.62,3.56,1.62h16.5l4-97h22l-1.01,55.49c-2.05,21.54-2.4,43.13-6,64.5-13.63-1.01-29.16,1.37-42.55.07-1.69-.16-3.3.05-4.52-1.48l-17.9-21.1c.94-32.58-1.56-64.99-2.02-97.48h25Z"/>
  <path class="cls-3" d="M346.3,45.5c.66-.04,1.34.02,2,0,1-.03,2,.03,3,0s2,.02,3,0c.33,0,.67,0,1,0,.67,0,1.33,0,2,0,3.33-.03,6.67.01,10,0,1.33,0,2.67,0,4,0,4.32,0,8.68-.05,13,0,1,.01,2-.02,3,0,5.65.09,11.35-.06,17,0l10.96,17.54-.17,45.75c-12.27,12.62-28.71,21.2-46.79,19.71v37h-24v-94.5c0-1.33,7.03-4.59,7.02-5.02-.05-1.75-8.43-14.8-9.6-18.4-.37-1.13-1.11-1.52.58-2.08.81-.27,2.84.06,4,0ZM369.31,106.5c4.16-.69,19.74-2.4,21.51-5.98.84-1.7.96-29.04.53-32.56-.13-1.07.04-2.3-.99-3.01-1.56-1.09-16.63-.53-20.07-1.44l-.99,43Z"/>
  <path class="cls-3" d="M921.3,45.5l-19.6,28.92c-11.28-4.96-23.12-7.78-35.39-8.91,1.12,4.55-2.63,12.15-.49,15.99l44.4,29.59,2.88,3.12v35.59c-.39,1.3-15.16,15.7-16.29,15.7h-62.5l13.66-24.91c13.06,3.76,26.71,5.34,40.35,4.91l1.83-21.85c-8.25-4.45-46.48-24.6-48.63-31.86-.61-2.07-.29-5.5-.19-7.79.6-14.05,6.25-26.67,13.49-38.51h66.5Z"/>
  <path class="cls-3" d="M525.3,65.5c-.66.03-1.34-.03-1.99,0l-1.01,28h33v21h-33v30h26.5c4.69,6.23,8.32,13.81,11.5,21h-63l1-120h61c-.98,5.05,1.33,15.8,0,20h-11c-2.99,0-6.01-.02-9,0-.33,0-.67,0-1,0-1.33.01-2.67-.02-4,0-.33,0-.67,0-1,0-1.66.03-3.34-.09-5,0-1,.05-2-.05-3,0Z"/>
  <path class="cls-3" d="M55.3,45.5c1.33-.03,2.67.01,4,0,3.66-.03,7.34.02,11,0,.67,0,1.33,0,2,0,5.65-.03,11.35-.02,17,0,.67,0,1.33,0,2,0,.33,0,.67,0,1,0,.67,0,1.33,0,2,0,1,0,2-.01,3,0s2-.02,3,0c3.65.07,7.35-.05,11,0v28c-10.84-5.29-21.68-8.7-34.01-8l-1,77.01,31.86-.85c3.79,8.45,10.35,15.81,15.14,23.84H41.3c1.12-4.83,11.96-12.99,12.85-16.71.43-1.83-2.18-7.38-2.59-10.04-2.42-15.79-2.52-47.01,1-62.49,1.6-7.03,8.73-9.65,8.83-10.35.46-3.18-11.22-16.64-13.08-20.4,2.32-.03,4.67.04,7,0Z"/>
  <polygon class="cls-3" points="451.3 45.5 450.3 138.5 476.3 138.5 489.3 165.5 426.3 165.5 427.3 45.5 451.3 45.5"/>
  <polygon class="cls-3" points="682.3 21.5 691.3 37.5 655.3 37.5 645.3 21.5 682.3 21.5"/>
  <path class="cls-1" d="M829.3,45.5c-16.29-.3-32.7,0-49,0h49Z"/>
  <path class="cls-1" d="M716.3,45.5c8.66-2.3,18.54-.37,27.5-1,1.45.41-.48.95-.5,1-8.99-.07-18.01.1-27,0Z"/>
  <path class="cls-1" d="M323.3,45.5c-5.38-.17-12.83-.55-18,0,5.01-1.67,12.92-1.68,18,0Z"/>
  <path class="cls-1" d="M89.3,45.5c-5.65-.02-11.35-.03-17,0,4.71-1.68,12.36-1.68,17,0Z"/>
  <path class="cls-1" d="M404.3,45.5c-5.65-.06-11.35.09-17,0,4.71-1.68,12.36-1.68,17,0Z"/>
  <path class="cls-1" d="M384.3,45.5c-4.32-.05-8.68,0-13,0,3.01-1.67,9.79-1.7,13,0Z"/>
  <path class="cls-1" d="M111.3,45.5c-3.65-.05-7.35.07-11,0,2.34-1.66,8.46-1.71,11,0Z"/>
  <path class="cls-1" d="M70.3,45.5c-3.66.02-7.34-.03-11,0,2.34-1.66,8.46-1.71,11,0Z"/>
  <path class="cls-1" d="M770.3,45.5h-10c2.02-1.66,7.79-1.71,10,0Z"/>
  <path class="cls-1" d="M367.3,45.5c-3.33.01-6.67-.03-10,0,2.02-1.66,7.79-1.71,10,0Z"/>
  <path class="cls-1" d="M55.3,45.5c-2.33.04-4.68-.03-7,0,1.26-1.65,5.74-1.65,7,0Z"/>
  <path class="cls-1" d="M554.3,65.5c-1.01,1.64-5.05,1.61-6,0h6Z"/>
  <path class="cls-1" d="M698.3,45.5c-1.97.17-4.02-.12-6,0,.08-1.57,4.95-1.63,6,0Z"/>
  <path class="cls-1" d="M704.3,45.5h-4c1.64-.05,2.73.01,4,0Z"/>
  <path class="cls-1" d="M346.3,45.5c-1.16.06-3.19-.27-4,0,.32-1.5,3.59-1.56,4,0Z"/>
  <path class="cls-1" d="M329.3,45.5c-1.33-.02-2.67.03-4,0,.41-1.56,3.68-1.5,4,0Z"/>
  <path class="cls-1" d="M559.3,65.5c-.58,1.85-2.09,1.08-3,0h3Z"/>
  <path class="cls-1" d="M775.3,45.5h-3c.14-1.5,2.86-1.5,3,0Z"/>
  <path class="cls-1" d="M351.3,45.5c-1,.03-2-.03-3,0,.14-1.5,2.86-1.5,3,0Z"/>
  <path class="cls-1" d="M97.3,45.5c-1-.01-2,0-3,0,.14-1.5,2.86-1.5,3,0Z"/>
  <path class="cls-1" d="M528.3,65.5c-1,1.21-1.99,1.2-3,0,1-.05,2,.05,3,0Z"/>
  <path class="cls-1" d="M837.3,45.5c-.66-.02-1.33.03-2,0l1.49-.99.51.99Z"/>
  <path class="cls-1" d="M712.3,45.5h-2c.57,0,1.42,0,2,0Z"/>
  <path class="cls-1" d="M708.3,45.5h-2c.58,0,1.37,0,2,0Z"/>
  <path class="cls-1" d="M538.3,65.5c.33,0,.67,0,1,0h-1Z"/>
  <path class="cls-1" d="M533.3,65.5c.33,0,.67,0,1,0h-1Z"/>
  <path class="cls-1" d="M758.3,45.5h-1c.12-.17-.18-.82.5-.98l.5.98Z"/>
  <path class="cls-1" d="M355.3,45.5c-.33,0-.67,0-1,0l.5-.98.5.98Z"/>
  <path class="cls-1" d="M92.3,45.5c-.33,0-.67,0-1,0l.5-.98.5.98Z"/>
  <polygon class="cls-2" points="412.3 253.5 412.3 316.5 370.3 316.5 378.3 253.5 412.3 253.5"/>
  <path class="cls-2" d="M575.3,253.5v28.5c0,1.45-18.86,17.32-21.53,19.47-4.94,3.97-10.69,8.4-16.47,11.03v-55.5c0-.54,1.55-2.22,1-3.5h37Z"/>
  <path class="cls-2" d="M810.3,380.5h-40.5l-1.32-1.68c-3.19-19.28-8.16-38.21-9.17-57.83-1.13-21.96,2.07-43.68,2.99-65.49h44.5c.2,0,1.1-1.41,1.49-1.01,1.26,10.07,3.5,20.31,4.05,30.47,1.15,21.13.89,47.85,0,69.08-.36,8.6-2.43,17.74-2.04,26.46Z"/>
  <path class="cls-2" d="M807.3,67.51c-1.48,25.3-.89,50.82-5,76l-25.9-1.11c-4.73-25.04-4.35-50.46-4.11-75.9l35,1.01Z"/>
  <polygon class="cls-2" points="610.3 67.5 614.3 111.5 592.3 111.5 595.3 67.5 610.3 67.5"/>
  <path class="cls-2" d="M369.31,106.5l.99-43c3.43.91,18.51.36,20.07,1.44,1.03.71.85,1.94.99,3.01.43,3.52.31,30.86-.53,32.56-1.77,3.58-17.35,5.29-21.51,5.98Z"/>
  <path class="cls-2" d="M958.3,28.5l-40.9,61.7c-.98,3.7,11.55,10.98,12.69,16.01.89,3.95-.05,9.49.22,13.78.76,12.17,1.66,24.49.79,36.81-6.75,7.24-24.37,32.7-34.3,32.7h-487.5v-41c-2.09,2.94-15.15,8.63-15.84,10.66-1.02,2.99.64,4.96.73,6.91.02.47-1.7.31-1.88,1.09-.86,3.72.83,8.39.65,11.7s-2.54,6.92-1.65,10.65l-361.06-.45-22.94-11.57c-.41-1.51.39-1.65.98-2.5,6.2-8.92,16.51-17.91,22.81-27.19,2.54-22.84,1.9-45.87,3.21-68.79.34-5.86,3.46-14.65.85-19.87-4.57-9.14-16.88-20.32-21.85-30.15-.26-3.06,1.08-.48,1.49-.48h245l11.51,26,17.49-26h184.5l-2.01,83.01c2.08-.88,11.01,2.27,11.01-.51V27.5h142l-3-20h78.5c.5,0,6.09,4.97,7.01,5.99,2.45,2.7,9.42,15.01,11.99,15.01h239.5ZM682.3,21.5h-37l10,16h36l-9-16ZM48.3,45.5c1.87,3.77,13.54,17.22,13.08,20.4-.1.7-7.23,3.32-8.83,10.35-3.52,15.48-3.42,46.7-1,62.49.41,2.66,3.03,8.22,2.59,10.04-.88,3.72-11.73,11.88-12.85,16.71h82c-4.8-8.03-11.36-15.39-15.14-23.84l-31.86.85,1-77.01c12.32-.7,23.17,2.71,34,8v-28c-2.53-1.71-8.66-1.66-10.99,0-1-.02-2,.01-3,0-.14-1.5-2.86-1.5-3,0-.67,0-1.33,0-2,0l-.5-.98-.5.98c-.67,0-1.33,0-2,0-4.64-1.68-12.29-1.68-17,0-.67,0-1.33,0-2,0-2.54-1.71-8.66-1.66-11,0-1.33.01-2.67-.03-4,0-1.26-1.65-5.74-1.65-7,0ZM305.3,45.5c-.76.08-1.6-.17-2.35.13l-1.46,1.55-30.2,74.32-33.49-76h-26.5v120h24l1.01-65c4.31,2.01,4.14,7.16,5.8,10.69,6.88,14.67,14.24,29.13,20.35,44.14l17.18.21,26.66-57.05v65.5c0,.11,1.39,1.5,1.5,1.5h21.5V45.5c-.32-1.5-3.59-1.56-4,0-.67-.02-1.33.02-2,0-5.08-1.68-12.99-1.67-18,0ZM342.3,45.5c-1.69.56-.95.95-.58,2.08,1.18,3.61,9.55,16.65,9.6,18.4.01.43-7.02,3.69-7.02,5.02v94.5h24v-37c18.09,1.49,34.52-7.09,46.79-19.71l.17-45.75-10.96-17.54c-4.64-1.68-12.29-1.68-17,0-1-.02-2,.01-3,0-3.21-1.7-9.99-1.67-13,0-1.33,0-2.67,0-4,0-2.21-1.71-7.98-1.66-10,0-.67,0-1.33,0-2,0l-.5-.98-.5.98c-1,.02-2-.03-3,0-.14-1.5-2.86-1.5-3,0-.66.02-1.34-.04-2,0-.41-1.56-3.68-1.5-4,0ZM692.3,45.5c-.04.82,7.19,12.02,8.38,14.12.63,1.11.49,2.82,1.17,3.83,1.5,2.26,8.39,3.13,9.29,5.71l-.85,50.34c-1.5-.23-1.86-1.89-2.51-2.98-13.21-22.12-22.24-48.77-33.53-72.01-9.48,1.61-20.42,1.24-29.94-.01-1.57,1.58,9.99,10.56,9.99,11.5v109.5h24v-53.5c0-.57-2.64-4.37-.01-4.49,9.92,19.78,20.47,39.44,32.51,57.99h23.5c-.78-4.64.81-9.11,1.04-13.46,1.36-25.98-3.13-58.29-.07-83.07.72-5.82,6.05-16.74,8.03-23.47.02-.05,1.95-.59.5-1-8.96.63-18.84-1.29-27.5,1-1.33-.01-2.67,0-4,0-.58,0-1.43,0-2,0-.67,0-1.33,0-2,0-.63,0-1.42,0-2,0-.67,0-1.33,0-2,0-1.27.01-2.36-.05-4,0-.66.02-1.34-.06-2,0-1.05-1.63-5.92-1.57-6,0ZM757.3,45.5c-4.75,6.98-6.66,32.26-7.05,41.45-1.1,25.81,1.09,53.06,5.15,78.44h66.8c.83-5.91,3.18-12.71,4.02-18.47,3.41-23.51,1.89-49.11,2.12-72.96.02-1.96-.99-3.79-.83-5.73.31-3.57,10.57-21.77,9.78-22.73l-.51-.99-1.49.99c-1.99-.08-4,.04-6,0h-54c-.14-1.5-2.86-1.5-3,0h-2c-2.21-1.71-7.98-1.66-10,0h-2l-.5-.98c-.68.16-.38.81-.5.98ZM148.3,45.5h-25c.46,32.49,2.96,64.9,2.02,97.48l17.9,21.1c1.22,1.53,2.83,1.31,4.52,1.48,13.39,1.3,28.92-1.08,42.55-.07,3.59-21.37,3.95-42.96,6-64.5l1.01-55.49h-22l-4,97h-16.5c-.27,0-3.45-1.19-3.56-1.62-2.65-31.75-3.35-63.46-2.94-95.38ZM451.3,45.5h-24l-1,120h63l-13-27h-26l1-93ZM559.3,65.5c1.33-4.2-.98-14.95,0-20h-61l-1,120h63c-3.18-7.19-6.81-14.77-11.5-21h-26.5v-30h33v-21h-33l1.01-28c.66-.04,1.33.03,1.99,0,1.01,1.2,2,1.21,3,0,1.66-.09,3.34.03,5,0h1c1.33-.02,2.67.01,4,0h1c2.99-.02,6.01,0,9,0,.95,1.61,4.99,1.64,6,0h2c.91,1.08,2.42,1.85,3,0ZM630.3,45.5h-55l-11,120h24.5c.7,0,1.35-1.67,1.5-2.5,1.45-7.9-.5-20.91,1-29.5h24l2,32.01c8.72.21,17.36,0,26-1.01l-13-118.99ZM921.3,45.5h-66.5c-7.23,11.84-12.89,24.45-13.49,38.51-.1,2.29-.42,5.72.19,7.79,2.14,7.26,40.38,27.41,48.63,31.86l-1.83,21.85c-13.64.42-27.29-1.15-40.35-4.91l-13.66,24.91h62.5c1.13,0,15.91-14.4,16.3-15.7v-35.59s-2.88-3.12-2.88-3.12l-44.4-29.59c-2.14-3.84,1.61-11.44.49-15.99,12.27,1.13,24.11,3.95,35.39,8.91l19.6-28.92Z"/>
  <g>
    <path class="cls-2" d="M1168.96,7.42c.14,12.17-.18,24.37-.02,36.54.43,33.23.52,66.65,1.07,99.89-7.29,10.84-13.6,23.67-16.07,36.99-.68,3.68-1.09,7.49-1.34,11.22h63.11c-14.87,30.53-32.36,59.75-47.38,90.23-.84,1.92-6.39.39-6.96.93.54,2.92,1.19,5.91,2.05,8.76.66,2.19,3.4,7.45,2.57,8.95-34.74,41.77-69.99,83.36-109.49,120.78-7.5,7.11-15.41,14.46-23.39,21.02-.66.54-.94,1.42-2.04,1.16l26.28-83.27c-.58-.42-1.37.8-1.72,1.19-3.05,3.43-5.57,8.02-9.37,10.79v-90.57h-135.56v-80.93c11.12-12.9,21.55-26.91,31.8-40.66,37.72-50.64,74.15-102.24,111.65-153.04h114.82ZM1149.09,24.37h-86.19c-31.71,43.06-62.66,86.32-94.02,129.77-1.58,2.19-3.18,4.33-4.68,6.4-11.04,15.26-22.24,30.41-33.06,45.84v47.62c18.15,1.85,36.55.17,54.35-3.79,10.32-2.3,20.22-5.82,29.79-10.23-8.61,9.79-18.77,17.99-29.22,25.7h79.47v69.53c9.57-10.68,17.07-22.99,25.03-34.87l24.05-45.77c-2.09,10.03-4.88,19.99-7.88,29.8-9.59,31.29-23.51,61.53-35.52,91.3-1.21,2.99-1.97,6.32-3.91,8.92.09,1.88.56.28.98-.11,3.92-3.64,7.92-7.36,11.59-11.28,6.65-7.11,13.43-14.81,19.86-22.21,12.81-14.76,24.51-30.44,36.81-45.6.69-1.51-1-5.97-1.3-8.04-1.53-10.65-1.52-20.92-1.34-31.67h22.2l13.42-25.96c-.29-1.3-12.03-4.03-14-4.73-.56-.2-1.34-.07-1.17-.86,7.64-.86,14.84-3.63,21.92-6.42l10.79-18.13h-53.76c-.34-8.5.48-16.9,1.24-25.35l4.9-21.98c-5.75,8.59-12.17,16.75-17.84,25.4-7.29,11.12-14.68,23.85-20.82,35.25-6.63,12.3-13.01,24.92-17.74,38.09-1.02.14-.55-1.33-.57-2.03-.2-5.25,2.87-14.11,4.52-19.45,11.54-37.29,33.04-70.58,54.35-102.83,1.87-2.83,8.06-9.6,8.77-12.27.44-1.65.28-11.76-.56-12.88-.57-.77-12.59-3.51-14.49-3.92l15.19-7.89v-49.08c-5.09,5.38-8.86,11.99-13.72,17.54-8.21,9.35-16.55,15.05-27.95,19.96-4.28,1.85-8.79,3.23-13.25,4.57,17.72-12.89,30.9-31.06,42.67-49.36,3.33-5.17,7.69-11.64,10.52-16.94.38-.71.79-1.11.57-2.06Z"/>
    <path class="cls-3" d="M1149.09,24.37c.22.95-.19,1.35-.57,2.06-2.84,5.3-7.2,11.77-10.52,16.94-11.77,18.3-24.95,36.47-42.67,49.36,4.46-1.34,8.96-2.72,13.25-4.57,11.4-4.91,19.74-10.61,27.95-19.96,4.87-5.54,8.63-12.16,13.72-17.54v49.08l-15.19,7.89c1.9.41,13.92,3.15,14.49,3.92.84,1.12,1,11.23.56,12.88-.71,2.67-6.9,9.44-8.77,12.27-21.32,32.25-42.82,65.54-54.35,102.83-1.65,5.34-4.71,14.19-4.52,19.45.03.71-.44,2.17.57,2.03,4.72-13.17,11.11-25.79,17.74-38.09,6.14-11.4,13.54-24.13,20.82-35.25,5.67-8.65,12.09-16.81,17.84-25.4l-4.9,21.98c-.76,8.45-1.58,16.85-1.24,25.35h53.76l-10.79,18.13c-7.08,2.79-14.29,5.56-21.92,6.42-.17.79.61.66,1.17.86,1.97.7,13.71,3.43,14,4.73l-13.42,25.96h-22.2c-.18,10.76-.19,21.02,1.34,31.67.3,2.07,2,6.53,1.3,8.04-12.31,15.17-24.01,30.85-36.81,45.6-6.42,7.4-13.21,15.1-19.86,22.21-3.67,3.92-7.67,7.64-11.59,11.28-.42.39-.89,1.99-.98.11,1.94-2.61,2.7-5.93,3.91-8.92,12.02-29.77,25.93-60,35.52-91.3,3-9.8,5.79-19.76,7.88-29.8l-24.05,45.77c-7.95,11.88-15.46,24.18-25.03,34.87v-69.53h-79.47c10.44-7.71,20.61-15.91,29.22-25.7-9.58,4.4-19.48,7.93-29.79,10.23-17.79,3.96-36.2,5.64-54.35,3.79v-47.62c10.81-15.43,22.01-30.58,33.06-45.84,1.5-2.07,3.11-4.22,4.68-6.4,31.36-43.45,62.31-86.71,94.02-129.77h86.19ZM1074.88,209.59c-3.84-9.51-7.46-19.13-9.65-29.2-4.37-20.1-.28-48.07,3.39-68.49,1.03-5.74,3.43-11.56,3.04-17.41-8.49,9.43-15.54,19.91-23.1,30.07-13.09,17.61-25.74,35.68-38.15,53.53-7.36,10.58-15.11,20.9-22.02,31.79l86.48-.29ZM1024.93,114.95c-6.7,7.16-12.95,14.72-19.28,22.2-10.95,12.94-21.88,26.16-31.74,40.13l-20.27,29.39c11.73-6.16,20.01-15.47,28-25.75,10.34-13.29,21.03-29.25,30.15-43.47,4.69-7.31,9.22-14.74,13.14-22.5Z"/>
    <path class="cls-2" d="M1074.88,209.59l-86.48.29c6.91-10.89,14.66-21.21,22.02-31.79,12.41-17.85,25.06-35.92,38.15-53.53,7.56-10.17,14.6-20.64,23.1-30.07.39,5.84-2.01,11.66-3.04,17.41-3.68,20.42-7.76,48.39-3.39,68.49,2.19,10.07,5.81,19.69,9.65,29.2ZM1049.76,192.07c-3.19-10.49-5.27-21.75-4.1-32.72l-21.61,32.72h25.71Z"/>
    <path class="cls-2" d="M1024.93,114.95c-3.92,7.75-8.45,15.19-13.14,22.5-9.13,14.22-19.81,30.18-30.15,43.47-8,10.28-16.27,19.59-28,25.75l20.27-29.39c9.87-13.97,20.79-27.18,31.74-40.13,6.33-7.48,12.58-15.04,19.28-22.2Z"/>
  </g>
</svg>